<svg width="74" height="64" viewBox="0 0 74 64" stroke="rgb(228, 228, 231)" fill="rgb(228, 228, 231)" xmlns="http://www.w3.org/2000/svg">
<path d="M1.02456 23.5309C-0.342273 24.8978 -0.342273 27.1138 1.02456 28.4807L23.2984 50.7545C24.6653 52.1214 26.8813 52.1214 28.2482 50.7545C29.615 49.3877 29.615 47.1716 28.2482 45.8048L8.44918 26.0058L28.2482 6.20681C29.615 4.83997 29.615 2.6239 28.2482 1.25706C26.8813 -0.109774 24.6653 -0.109774 23.2984 1.25706L1.02456 23.5309ZM41.9164 22.5058L3.49944 22.5058V29.5058L41.9164 29.5058V22.5058Z" />
<path d="M72.8746 40.5991C74.2414 39.2323 74.2414 37.0162 72.8746 35.6494L50.6007 13.3755C49.2339 12.0087 47.0178 12.0087 45.651 13.3755C44.2841 14.7423 44.2841 16.9584 45.651 18.3252L65.45 38.1242L45.651 57.9232C44.2841 59.2901 44.2841 61.5061 45.651 62.873C47.0178 64.2398 49.2339 64.2398 50.6007 62.873L72.8746 40.5991ZM30.5306 41.6242L70.3997 41.6242L70.3997 34.6242L30.5306 34.6242L30.5306 41.6242Z" />
</svg>
